/* XPM */
static char *result[] = {
/* columns rows colors chars-per-pixel */
"64 64 255 2 ",
"   c #156D35",
".  c #136E36",
"X  c #277B39",
"o  c #3F7A3C",
"O  c #576632",
"+  c #327744",
"@  c #D92B17",
"#  c #DA331B",
"$  c #CC3519",
"%  c #EA2F1A",
"&  c #D23523",
"*  c #F13C20",
"=  c #98562B",
"-  c #89512F",
";  c #AD5427",
":  c #B26F35",
">  c #93612F",
",  c #D9461A",
"<  c #D0511D",
"1  c #E6491B",
"2  c #EC571C",
"3  c #D9651E",
"4  c #F26A1E",
"5  c #D84924",
"6  c #C95527",
"7  c #D6592A",
"8  c #CD5230",
"9  c #E74A26",
"0  c #F04B26",
"q  c #E45B2B",
"w  c #F55C27",
"e  c #D4662B",
"r  c #D56C2A",
"t  c #DB6E2B",
"y  c #D76724",
"u  c #DA732D",
"i  c #D7772D",
"p  c #CB6739",
"a  c #DC7A32",
"s  c #D77634",
"d  c #CC6A2D",
"f  c #E6692A",
"g  c #F4692A",
"h  c #E6782C",
"j  c #F5772A",
"k  c #E17C33",
"l  c #EA7637",
"z  c #F97E34",
"x  c #E76B36",
"c  c #AA3F4E",
"v  c #B25954",
"b  c #BB6F53",
"n  c #987871",
"m  c #AE7069",
"M  c #945779",
"N  c #D25B4A",
"B  c #D46558",
"V  c #D1734D",
"C  c #C97464",
"Z  c #D67367",
"A  c #D0786E",
"S  c #E17742",
"D  c #2C922D",
"F  c #3B972E",
"G  c #28853A",
"H  c #37883B",
"J  c #3A9738",
"K  c #2C8C2B",
"L  c #34911F",
"P  c #598C3B",
"I  c #489A3C",
"U  c #4A8F39",
"Y  c #6E9838",
"T  c #779B3B",
"R  c #658E33",
"E  c #45A03D",
"W  c #7FA035",
"Q  c #2D8B43",
"!  c #338B42",
"~  c #3E9A42",
"^  c #379343",
"/  c #3C8A56",
"(  c #449B44",
")  c #479A49",
"_  c #539C47",
"`  c #4E9253",
"'  c #769C4A",
"]  c #4AA344",
"[  c #46A349",
"{  c #52A549",
"}  c #58A354",
"|  c #68A75F",
" . c #559A6D",
".. c #6A9C69",
"X. c #6F9E74",
"o. c #5DA265",
"O. c #75AA7E",
"+. c #74AC72",
"@. c #AA8837",
"#. c #BE9138",
"$. c #8BA638",
"%. c #94AD2E",
"&. c #A8B727",
"*. c #A5B536",
"=. c #B2BE33",
"-. c #979627",
";. c #DA873B",
":. c #C98C35",
">. c #EA822D",
",. c #F7852D",
"<. c #E38434",
"1. c #E98E3A",
"2. c #E88836",
"3. c #F68735",
"4. c #EC963B",
"5. c #F49334",
"6. c #F49C3C",
"7. c #F89838",
"8. c #FF9E2D",
"9. c #C3A03C",
"0. c #FBA53D",
"q. c #FDAB3D",
"w. c #F8A43A",
"e. c #FFB13D",
"r. c #BBC42F",
"t. c #B39052",
"y. c #90AC4D",
"u. c #B58D73",
"i. c #8BB273",
"p. c #A4B67D",
"a. c #9E9E63",
"s. c #C58443",
"d. c #DD8845",
"f. c #CD8D54",
"g. c #E89746",
"h. c #F49D44",
"j. c #E38F40",
"k. c #D3A552",
"l. c #EBA249",
"z. c #F4A444",
"x. c #F9A642",
"c. c #FDAB42",
"v. c #F6AB4D",
"b. c #FCAB4A",
"n. c #F5A64A",
"m. c #FEB246",
"M. c #FEB34D",
"N. c #F9B64D",
"B. c #E8A857",
"V. c #F6AD52",
"C. c #FCB353",
"Z. c #FFB955",
"A. c #FAB75B",
"S. c #DA8675",
"D. c #C9976F",
"F. c #D3A970",
"G. c #FEBF67",
"H. c #FCBE6B",
"J. c #E3AF67",
"K. c #FFC560",
"L. c #AC7380",
"P. c #76AE82",
"I. c #778FBB",
"U. c #4997D0",
"Y. c #6C9AD1",
"T. c #7A93C9",
"R. c #52A5D6",
"E. c #5ABFE9",
"W. c #60B5E0",
"Q. c #7BC6E8",
"!. c #2DB0E3",
"~. c #9A898E",
"^. c #A59A9D",
"/. c #B29388",
"(. c #8DB589",
"). c #91BF8E",
"_. c #8FB295",
"`. c #BCAA94",
"'. c #AEB987",
"]. c #9092AC",
"[. c #99B6AD",
"{. c #AAB5B4",
"}. c #B2ACB1",
"|. c #CC978E",
" X c #D4AA90",
".X c #D0B7B1",
"XX c #E6B5AD",
"oX c #E09481",
"OX c #B1C795",
"+X c #9BC1A4",
"@X c #A6C9AB",
"#X c #B5C8B5",
"$X c #B2CDB1",
"%X c #D3C698",
"&X c #DCC4BC",
"*X c #E5C4BF",
"=X c #849BCB",
"-X c #8699C5",
";X c #889FCF",
":X c #8DA2CC",
">X c #98A8CA",
",X c #9DB3C7",
"<X c #87A7D9",
"1X c #95ABD3",
"2X c #9AADD3",
"3X c #93ADDB",
"4X c #96A9D5",
"5X c #9CB1D4",
"6X c #9BB2DA",
"7X c #9ABADB",
"8X c #8CB1C9",
"9X c #A4B2CE",
"0X c #A2B4D5",
"qX c #A4BADC",
"wX c #A9B8D7",
"eX c #B0B3C2",
"rX c #97B5E3",
"tX c #90AEE4",
"yX c #A7BCE0",
"uX c #BCD2C8",
"iX c #ACC1DC",
"pX c #B9C6DC",
"aX c #BCCDC0",
"sX c #91CAE7",
"dX c #ACC4E8",
"fX c #B9CAE6",
"gX c #ABD7EE",
"hX c #B4E2F8",
"jX c #C6D8C8",
"kX c #CCDCD4",
"lX c #DAD6D4",
"zX c #D0D2D3",
"xX c #E5CECC",
"cX c #D8E3D8",
"vX c #D6E1CB",
"bX c #E5E5DD",
"nX c #C8D4E7",
"mX c #D7DEED",
"MX c None",
"NX c None",
"BX c None",
"VX c None",
"CX c None",
"ZX c None",
"AX c None",
"SX c None",
"DX c None",
"FX c None",
"GX c None",
"HX c None",
"JX c None",
"KX c None",
"LX c None",
"PX c None",
"IX c None",
/* pixels */
"LXFXGXLXDXLXLXFXLXGXFXLXFXLXLXFXLXLXFXLXFXLXLXFXLXGXJXLXFXLXLXFXLXLXJXLXFXLXLXFXLXLXFXLXFXLXLXFXLXGXJXLXDXLXLXFXLXGXFXLXFXLXLXDX",
"LXLXLXLXLXLXLXLXLXLXLXJXLXLXGXLXFXLXLXGXLXLXLXLXLXLXLXLXLXLXFXLXGXLXLXGXLXLXLXLXJXLXLXGXLXLXLXLXLXLXLXLXLXLXLXLXLXLXLXJXLXLXLXLX",
"FXLXLXLXLXGXLXLXGXLXLXLXLXLXLXLXLXLXLXLXLXLXGXLXGXLXLXLXHXLX+.jXLXLXLXLXLXLXLXLXLXLXLXLXLXLXGXLXGXLXLXLXLXGXLXLXGXLXLXLXLXLXGXLX",
"LXJXLXLXFXLXLXFXLXLXLXLXFXLXLXJXLXLXJXLXFXLXLXJXLXFXLXLXHXHXE +XLXLXGXLXFXLXLXDXLXLXGXLXFXLXLXJXLXFXLXLXFXLXLXFXLXLXLXLXFXLXLXFX",
"FXLXLXDXLXLXFXLXFXLXLXFXLXLXGXLXFXLXLXFXLXLXLXLXLXLXLXDXLXjXF ).LXGXPXDXLXLXFXLXJXLXLXFXLXLXLXLXJXLXLXFXLXLXFXLXJXLXLXFXLXLXGXLX",
"LXLXLXLXGXLXLXLXLXLXGXLXGXLXLXLXLXLXKXLXLXLXLXLXVXGXLXLXLX+XD ).LXFXLX(.MXLXLXLXLXGXLXLXLXLXLXJXLXLXGXLXGXLXLXLXLXLXGXLXGXLXLXLX",
"LXLXLXLXLXLXLXLXLXGXLXLXLXLXLXLXLXGXLXLXFXLXLXLX .jXLXLXLXP.J +.LXLXcXP VXLXLXGXLXLXLXLXFXLXLXLXLXLXLXLXLXLXLXLXLXLXLXLXFXLXLXJX",
"FXLXLXDXLXLXJXLXJXLXLXFXLXJXLXLXFXLXLXFXLXGXLXLX} O.LXFXLXo.E | JXLXOXY ZXLXFXLXFXLXLXFXLXGXLXLXFXLXLXFXLXLXJXLXFXLXLXFXLXLXLXLX",
"LXLXLXLXDXLXLXFXLXLXJXLXFXLXLXFXLXLXJXLXSXLXLXLX+.U VXLXVX) ( | LXSXy.$.VXLXLX_.$XLXLXLXFXLXLXJXLXLXLXLXFXLXLXFXLXGXLXLXFXLXLXDX",
"GXLXLXGXLXLXLXLXLXLXLXLXLXLXLXLXLXLXFXLX#X(.LXLX).D +XLXcX( ] } LX$XW y.SXLXVXJ ).LXLXLXLXLXGXLXLXLXLXGXLXLXGXLXLXLXLXJXLXLXLXLX",
"JXLXLXLXLXLXLXLXFXLXLXLXLXLXGXLXLXLXLXLXvXR &XLX+XF } KXcX~ ] { VXi.%.y.KXLXP.D _.LXGXFXLXGXLXLXJXLXLXGXLXLXLXLXGXLXLXLXLXLXGXLX",
"LXLXGXLXFXLXLXFXLXLXGXLXFXLXLXFXLXGXLXLXAXy.y.KXjXI H kXkXJ [ } @X$.&.p.LXjX~ J @XLXGXLXFXLXLXFXLXLXLXLXDXLXLXFXLXLXLXLXFXLXLXFX",
"FXLXLXFXLXLXJXLXDXLXLXFXLXLXGXLXDXLXLXIXHXOX%.$XZX( F P.cX^ [ ) ..&.&.OXLXo.E ~ uXLXLXDXLXLXLXLXFXLXLXFXLXLXLXLXFXLXLXFXLXLXGXLX",
"LXLXLXLXLXLXLXJXLXLXGXLXGXLXLXLXLXLXLXLXLXvX&.y.cX+.J ) +X~ [ ! T r.%.cX@XJ { ` JXLXLXLXGXLXLXJXLXLXGXLXJXLXLXFXLXLXGXLXGXLXLXLX",
"LXLXGXLXLXLXLXGXLXLXLXLXLXLXLXLXLXLXLXLXHXGX*.r.p.[.J ~ ` ~ ( ! $.r.*.jX} { I P.SXGXLXLXGXLXLXLXLXLXLXLXLXLXLXLXLXKXLXLXFXLXLXJX",
"DXLXLXFXLXGXLXLXFXLXLXFXLXJXLXLXFXLXLXLXLXLXOX&.%.P.[ [   ~ ( Q $.=.p.O.J { ~ P...LXLXDXLXLXLXLXDXLXLXFXLXLXGXLXFXLXLXFXLXLXLXLX",
"LXLXJXLXFXLXLXFXLXLXLXLXFXLXLXDXLXGXLXSXZXLXcX%.=.Y Q { Q ^ ( ! $.=.` ) ] ] / T i.LXGXLXDXLXLXFXLXGXGXLXFXLXLXJXLXLXGXLXFXLXLXFX",
"JXLXLXLXLXLXLXLXJXLXLXFXLXLXLXLXGXLXLXjX` bXHXi.%.*.o [ G ^ ( H *.T H [ ( Q P W #XLXLXFXLXLXLXLXLXLXLXLXLXLXGXLXLXLXLXFXLXLXLXLX",
"FXLXLXLXLXLXGXLXLXLXLXLXLXGXLXLXLXLXLXLX..I $XuX$.*.Y ^ H ^ ~ ! Y H [ ( ^ H &.' LXAXGXLXLXLXLXLXLXLXLXLXLXGXLXLXJXLXLXLXLXLXGXLX",
"LXLXGXLXFXLXLXFXLXLXGXLXFXLXLXFXLXLXFXLXVX! I i.X.%.' ! G Q ~ H o ) ~ J X *.T #X$X| JXLXDXLXLXJXLXJXLXLXFXLXLXFXLXLXLXLXDXLXLXFX",
"DXLXLXFXLXLXGXLXFXLXLXFXLXJXLXLXFXLXLXDXLXkXG F _ P Y o G G H   ^ ) ! X $.$.` i.L (.KXSXLXLXGXLXFXLXLXFXLXLXLXLXDXLXLXFXLXGXLXLX",
"LXLXGXLXGXLXLXLXLXLXKXLXLXLXLXLXLXLXGXLXDXLXcX/ K I P o G X X Q ( Q X P T P { D ` VXLXLXGXLXLXJXLXLXLXLXGXLXLXGXLXLXLXLXLXLXLXGX",
"LXLXLXLXLXLXLXLXLXGXLXLXLXLXLXGXLXLXLXLXFXLXLXFXO.G ^ H . .   G     U U K G G X.SXLXFXLXLXLXLXLXLXLXLXLXLXLXLXLXLXLXLXLXJXLXLXJX",
"FXLXLXFXLXJXLXLXFXLXLXFXLXFXLXLXDXLXLXFXLXJXFXLXHX^.O = = - - = ; = O +  .P.#XLXFXLXLXFXJXpXwXfXAXLXLXFXLXLXFXLXDXLXLXFXLXLXLXLX",
"LXLXJXLXFXLXLXDXLXGXGXLXFXLXLXFXLXGXGXLXLXLXLXVXS.f l 3.f x 3.f f g g 8 |.LXLXFXLXLXFXLXnX-X].6XAXLXGXLXFXLXLXFXLXLXFXLXFXLXLXDX",
"GXLXLXLXLXLXLXLXLXLXLXLXLXLXKXLXLXLXLXLXLXLXXXp < 3.h.k u 5.7.5.>.u y f f p &XLXFXLXLXLXAXfXpXfXJXLXLXFXLXLXGXLXGXLXLXLXLXLXLXLX",
"FXLXLXLXLXGXLXLXLXLXLXLXLXGXLXLXJXLXLXLXLXoX2 ,.3.y 6 h 8.7.k 5.7.h p t 3.z 6 xXLXLXLXLXMXiX9XfXLXLXLXLXLXGXLXLXLXLXLXLXLXLXGXLX",
"LXJXLXLXFXLXLXFXLXJXLXLXFXLXLXFXLXFXLXHXS < 3.5.>.t k t >.w.6.7.t k 0.>.e k ,.S JXLXLXLXmXnXnXpXLXGXLXLXJXLXLXFXLXLXJXLXFXLXLXFX",
"FXLXLXDXLXLXLXLXFXLXLXDXLXLXFXLXFXLXSXN 2 2.7.h u 6.q.w.a k 6.i 2.c.7.7.5.e f f S.LXHXLXAXnXnXNXLXLXLXFXLXLXJXLXJXLXLXFXLXGXGXLX",
"LXLXLXLXGXLXLXJXLXLXLXLXGXLXLXLXLXLX|.2 ,.5.h i 0.x.n.v.N.>.6 4.Z.A.g.g.b.0.e 6 < &XLXLXAXfXpXVXLXLXLXLXLXLXLXLXLXLXGXLXLXLXLXLX",
"LXLXGXLXGXLXLXLXLXGXLXLXJXLXLXFXLXlX$ 7 ,.u a c.M.d.V.K.h.i j.s g.M.V.V.M.2.e 2., C LXDXnX9X2XmXLXGXLXLXLXLXLXGXLXLXLXLXFXLXLXJX",
"FXLXLXFXLXLXLXLXFXLXLXFXLXLXLXLXKXC q h < 3 q.N.Z.A.K.1.d z.m.w.u 2.b.C.4.y 3.2.V v nXwXyXAXfXNXLXLXLXFXLXGXLXLXFXLXLXFXLXLXLXLX",
"LXGXLXLXFXLXLXFXLXJXLXLXFXLXLXLXxX1 z h t u./.F.V.M.a r c.c.w.c.c.a h 5.y 1.8.u.tX7X-XpXfXfX0XAXLXJXJXLXJXLXLXFXLXLXFXLXFXLXLXDX",
"LXLXLXFXLXLXGXLXLXLXLXHXLXGXLXLXA w f e `.<XU.<X].r u q.0.z.w.0.0.m.2.; k c.c.g.m v m NXNXMXSXLXJXLXLXLXLXGXLXLXGXLXLXLXLXLXLXLX",
"JXLXLXLXLXGXLXLXLXLXLXLXLXLXLXDX9 q 3 u.Y.U.E.W.tXm q.q.0.w.;.b.b.C.a d.u 2.C.b.7.g 6 CXLXLXLXLXLXLXLXLXLXLXLXLXLXLXLXLXLXLXGXLX",
"LXLXLXLXJXLXLXFXLXFXJXLXDXLXLX X% 8 2.,XY.Q.hXQ.Y.n u C.M.V.n.C.Z.a 1.m.x.r 2.b.z.f $ XXLXLXLXGXLXJXLXLXFXLXLXFXLXLXJXLXFXLXLXFX",
"FXLXLXFXLXLXJXLXFXLXLXFXLXFXLXZ @ f g.>XrXhXgXsX<X/.>.s C.C.V.Z.<.;.m.x.c.q.r <.5.7 1 S.LXHXLXLXFXLXLXFXLXGXFXLXJXLXLXFXLXLXGXLX",
"LXLXGXLXLXLXLXLXLXLXGXLXPXLXLXB & 3.g.>X7XgXgXwXY.f.e.<.i z.Z.2.a q.q.0.0.c.x.i y h g p DXLXLXLXLXLXLXLXLXLXLXJXLXLXGXLXGXLXLXLX",
"LXGXLXLXLXLXLXGXLXLXLXLXPXLXPXN 9 e ,.u.<X7XyXY.~.w.0.e.4.i i <.q.w.c.j.l.b.C.h.6 h g 7 lXLXLXJXLXLXGXLXJXLXLXLXLXLXLXLXFXLXLXJX",
"FXLXLXFXLXGXLXLXFXLXLXJXLXLXxX@ w f t t m ].].n ;.6.b.c.m.>.6 1.M.x.C.n.V.C.C.s g.e x 5 XXLXHXLXFXLXLXFXLXLXLXLXFXLXLXFXLXLXLXLX",
"LXLXFXLXGXLXLXFXLXLXJXLXDXLXXX@ w 3.k 6 h q.g.c.n.l.C.Z.h.s B.u g.Z.C.C.M.C.a d.m.5.7 , .XLXLXFXLXJXLXLXJXLXLXFXLXGXLXLXFXLXLXDX",
"JXLXLXJXLXLXLXLXLXLXLXLXLXLXoX@ j f k x.r a C.Z.C.V.A.v.r B.c.q.t <.Z.V.C.2.i c.0.7.z $ |.LXLXLXLXLXLXLXLXLXGXLXLXLXLXJXLXLXLXLX",
"GXLXLXLXLXGXLXLXLXLXLXLXLXLXA % q r h.0.q.k y h.N.A.v.r h.q.0.c.q.<.s x.2.r c.w.w.5.,.1 A KXHXLXLXLXLXGXLXLXLXLXGXLXLXLXLXLXGXLX",
"LXLXLXLXFXLXLXFXLXGXGXLXDXLXZ % 7 >.7.8.0.m.4.e 1.q.r 4.c.0.c.w.w.m.1.e y z.c.c.1.<.3.1 b LXLXFXLXFXLXLXDXLXLXFXLXLXLXLXFXLXLXFX",
"DXLXLXFXLXGXLXLXFXLXLXFXLXPXC $ g ,.5.7.q.x.m.w.e 8 ;.q.x.b.j.z.C.A.n.y e g.C.0.5.4.3., v KXLXLXFXLXLXFXLXLXLXLXFXLXLXFXLXLXGXLX",
"LXLXGXLXLXLXLXLXLXLXGXLXPXLXm @ g z 5.;.0.x.w.F.{.qXpX}.B.Z.A.J.G.G.t h.7.3 w.m.n.x.l $ B KXLXJXLXLXGXLXGXLXLXFXLXLXGXLXGXLXLXLX",
"LXLXLXLXFXLXLXJXLXLXLXLXFXLXZ @ q 3.7.5.x.C.F.dX3X4X6XdX,XJ.K.H.G.a k q.J.^./.F.b.V.8 1 V SXLXJXLXKXLXLXLXLXLXLXLXKXLXLXFXLXLXJX",
"FXLXLXFXLXLXLXLXFXLXLXJXLXLXB # 5 ,.n.C.A.B.>X<X:XyXqX-XrX}.A.K.2.t q.k.wX7XrXtXF.t 7 0 N SXLXLXFXLXLXFXLXFXLXLXFXLXLXFXLXLXLXLX",
"LXLXGXLXFXLXLXJXLXLXJXLXFXLXB % 9 6 4.z.5.|.<X-XfX5XqXqX:X7Xd.>.y z.0.}.fXR.!.R.>X8 g 1 B LXLXHXLXGXLXLXJXLXLXDXLXLXFXLXFXLXLXDX",
"GXLXLXLXLXLXGXLXLXLXLXLXLXLXB % 0 q e h 3 {.<XqXyXwX2XdX8X3XC 3 6.q.z.9X<XE.hXsX6XV g % oXLXFXLXLXLXLXLXLXLXLXLXGXLXLXLXLXLXLXLX",
"FXLXLXLXLXGXLXLXFXLXLXLXLXLXB @ 0 w j < p 5XT.9XiX,X1X>X:X<Xu.3 b.c.4.[.Y.sXBXiX4XV w @ XXLXHXLXFXLXLXJXLXGXLXLXLXLXLXLXLXLXGXLX",
"LXJXLXLXFXLXLXFXLXLXGXLXHXLXZ @ 9 0 h 3 b 3XI.wXI.I.=X:X:XtX X3 1.C.q.^.rX5X5X5X{.6 9 @ xXLXLXJXLXLXLXLXFXLXLXFXLXLXJXLXJXLXLXFX",
"FXLXLXFXLXLXLXLXFXLXLXHXLXLX|.& * 7 8 ,.D.rX-X2XI.>X-X1X-XrX`.w.r l.Z.l.^.wX3XiXV 9 8 v IXLXJXLXFXLXLXFXLXLXFXLXJXLXLXFXLXGXLXLX",
"LXLXLXLXGXLXLXJXLXJXLXLXJXLX&Xc N p d.j D.<X-X2X>X-X:X-X;XtX`.w.6.r b.A.7.b D.x q v v L.KXLXLXJXLXLXKXLXLXLXLXLXLXGXLXLXLXLXLXGX",
"LXGXLXLXGXLXLXLXLXLXJXLXPXPXbXn @.d ;.;.D.<X-X>X:X>XT.9X>X;X`.q.m.;.t 7.u f 4 j v m L.}.LXLXLXLXLXGXLXLXFXLXLXLXLXLXLXLXFXLXLXJX",
"FXLXLXJXLXLXLXLXFXLXLXPXLXPXSXa.b t.d.d '.rX-XwXqX0X2X2X:X4X/.g.N.6.i y q j l S u.L.L.pXLXFXLXLXFXLXLXFXLXLXGXLXFXLXLXFXLXLXLXLX",
"LXLXLXLXFXLXLXFXLXLXLXLXFXLXLX.X@.@.;.: f.1X=XdXqX5X5X0X:X7XD.6.N.#.#.: y i h d.D.u.^.KXGXLXLXGXLXLXLXLXDXLXLXFXLXLXLXLXFXLXLXFX",
"LXLXLXGXLXLXLXLXJXLXLXGXLXLXGXGX%X:.#.: p ,X;XwX5X5X5X5X=X,Xl.2.1.k.<.@.: t.f.S p /.ZXLXLXHXGXLXLXLXLXGXLXLXLXLXGXLXLXJXLXLXGXLX",
"FXLXLXGXLXGXLXLXLXLXLXLXLXHXGXLXLXVX`.s.: 8XT.6X6X6X6X3X[.{.s.2.#.: @.@.< = t.f.%XIXLXGXLXGXLXLXJXLXLXLXLXLXLXLXGXLXLXLXLXLXLXLX",
"LXJXLXLXFXLXLXJXLXLXFXLXGXLXLXGXLXLXLXGXkXzXiXwX5X5XqX1X&XeXZ t.t.:.f.b t.u.&XNXLXLXLXLXGXLXLXFXLXGXGXLXFXLXLXFXLXLXLXLXDXLXLXFX",
"FXLXLXFXLXLXFXLXFXLXLXJXLXGXLXLXFXLXLXJXLXLXLXLXDXLXHXDXLXFXLXLXCXHXJXIXLXLXLXLXFXLXLXDXLXLXLXLXFXLXLXFXLXLXGXLXFXLXLXFXLXGXGXLX",
"LXLXGXLXLXLXLXGXLXLXLXLXLXLXLXLXLXLXGXLXLXLXLXFXLXFXLXLXLXLXLXLXLXLXLXLXJXLXLXLXLXGXLXLXLXLXLXJXLXLXLXLXLXLXLXJXLXLXGXLXLXLXLXLX",
"LXLXLXLXLXLXLXLXLXGXLXLXGXLXLXGXLXGXLXLXLXLXLXGXLXLXFXLXLXLXLXLXLXLXLXLXHXLXLXLXLXLXLXLXJXLXLXLXLXLXLXLXLXLXLXLXLXKXLXLXFXLXLXJX",
"DXLXLXDXLXGXJXLXFXLXLXFXLXFXLXLXFXLXLXFXLXFXLXLXFXLXLXFXLXJXGXLXFXLXLXFXLXJXHXLXFXLXLXFXLXFXGXLXDXLXLXDXLXFXJXLXFXLXLXFXLXLXLXLX"
};