/* XPM */
static char *result[] = {
/* columns rows colors chars-per-pixel */
"64 64 220 2 ",
"   c #010101",
".  c #090909",
"X  c #0A0A05",
"o  c #141415",
"O  c #130F0C",
"+  c #221D1D",
"@  c #242116",
"#  c #39371B",
"$  c #2C2413",
"%  c #292929",
"&  c #37362A",
"*  c #54391C",
"=  c #503D2E",
"-  c #6F471D",
";  c #4A4826",
":  c #58422C",
">  c #595628",
",  c #6C4A25",
"<  c #764E24",
"1  c #7C5226",
"2  c #634B34",
"3  c #6E5135",
"4  c #615F33",
"5  c #7B5A3B",
"6  c #755538",
"7  c #7A773A",
"8  c #756736",
"9  c #154147",
"0  c #274D51",
"q  c #1E717A",
"w  c #3D6C6F",
"e  c #555555",
"r  c #544C46",
"t  c #757351",
"y  c #686868",
"u  c #72726A",
"i  c #78787A",
"p  c #604F4F",
"a  c #9D261E",
"s  c #B71F21",
"d  c #C9302B",
"f  c #FA1824",
"g  c #865827",
"h  c #835E3D",
"j  c #905C25",
"k  c #B4582B",
"l  c #9A652B",
"z  c #95622B",
"x  c #88623F",
"c  c #877337",
"v  c #A36A2D",
"b  c #AA6E2D",
"n  c #AD7332",
"m  c #B57531",
"M  c #BD7A32",
"N  c #AD702F",
"B  c #C37D32",
"V  c #B6514C",
"C  c #8D6542",
"Z  c #836646",
"A  c #946A44",
"S  c #966B44",
"D  c #9A7546",
"F  c #917D4B",
"G  c #A4754A",
"H  c #A57549",
"J  c #95697D",
"K  c #996B7F",
"L  c #91636F",
"P  c #9E6565",
"I  c #C67D7E",
"U  c #7C9069",
"Y  c #B8B919",
"T  c #AE853C",
"R  c #B6B725",
"E  c #B6B530",
"W  c #BCBA38",
"Q  c #89853D",
"!  c #C88033",
"~  c #C6C43A",
"^  c #898642",
"/  c #9A9549",
"(  c #999548",
")  c #968F50",
"_  c #B78249",
"`  c #AB8F55",
"'  c #A8A34D",
"]  c #A9A552",
"[  c #B2AD54",
"{  c #B6B153",
"}  c #BAB455",
"|  c #BDB757",
" . c #B4AF4F",
".. c #97976A",
"X. c #838275",
"o. c #91866B",
"O. c #B89066",
"+. c #BBB866",
"@. c #BAB878",
"#. c #ABA86E",
"$. c #9BA770",
"%. c #C1BB56",
"&. c #C3BD59",
"*. c #C4B655",
"=. c #C3BF4C",
"-. c #C7B36B",
";. c #C9C647",
":. c #C6C15A",
">. c #CAC45B",
",. c #CEC95D",
"<. c #D3CC5E",
"1. c #D4CE56",
"2. c #DAD45C",
"3. c #D9D357",
"4. c #D3CF4A",
"5. c #E2DD5C",
"6. c #CBC666",
"7. c #D4CC67",
"8. c #DBD461",
"9. c #DBD564",
"0. c #CFCA77",
"q. c #E4DC64",
"w. c #E5DC6A",
"e. c #E4DD73",
"r. c #EBE365",
"t. c #ECE569",
"y. c #E7E068",
"u. c #F1E967",
"i. c #F4EC69",
"p. c #F8EF6A",
"a. c #FDF56D",
"s. c #FFF86F",
"d. c #FFF970",
"f. c #1E7680",
"g. c #9C6E82",
"h. c #A27186",
"j. c #A7748A",
"k. c #B47D95",
"l. c #B77F98",
"z. c #AF7890",
"x. c #DE5F96",
"c. c #CC6793",
"v. c #D76999",
"b. c #CB7B94",
"n. c #E16299",
"m. c #EE63A0",
"M. c #D37AA1",
"N. c #35AEBB",
"B. c #7EA89A",
"V. c #74ADB1",
"C. c #529498",
"Z. c #37BBCA",
"A. c #6EBDC6",
"S. c #38C6D7",
"D. c #4FCBD9",
"F. c #6DCDD7",
"G. c #868686",
"H. c #999999",
"J. c #9E988C",
"K. c #BC819B",
"L. c #B2988B",
"P. c #B7A785",
"I. c #BAB786",
"U. c #BDBB9B",
"Y. c #B0AA96",
"T. c #B8B4A8",
"R. c #BABBBB",
"E. c #B5B5B5",
"W. c #AFABA8",
"Q. c #99B2A9",
"!. c #EB9494",
"~. c #EE9994",
"^. c #C386A1",
"/. c #CE8CA9",
"(. c #CA89A6",
"). c #D18EAB",
"_. c #D683A7",
"`. c #C997AD",
"'. c #D591AF",
"]. c #D890AF",
"[. c #D594B0",
"{. c #DB94B3",
"}. c #D79CB6",
"|. c #E49BBB",
" X c #E99DBE",
".X c #E296B7",
"XX c #C7A2B2",
"oX c #D8A3BA",
"OX c #C5A98A",
"+X c #C6C39B",
"@X c #D2CE8C",
"#X c #C3C2A8",
"$X c #C9C8B7",
"%X c #D0CBB9",
"&X c #D7D6B8",
"*X c #D8D6AF",
"=X c #ED9FC1",
"-X c #D5B8C4",
";X c #EEA1C3",
":X c #F3A3C6",
">X c #F6A6C9",
",X c #F8A7CA",
"<X c #95D0D7",
"1X c #B8CED1",
"2X c #C8C7C7",
"3X c #D9D8C4",
"4X c #DAD7D6",
"5X c #D5CACC",
"6X c #E5E4DB",
"7X c #E1E0CF",
"8X c #DFDFE3",
"9X c #DBE8EA",
"0X c #E5E4E3",
"qX c #EBEBEC",
"wX c #E8EBEA",
"eX c #F4F4F4",
"rX c #FEFEFE",
"tX c #F9F9F8",
"yX c #F0F1F2",
"uX c None",
/* pixels */
"uXuXuXuXuXuXuXuXuXuXuXuXuXuXuXuXuXuXuXuXuXuXuXuXuXuXuXuXuXuXuXuXuXuXuXuXuXuXuXuXuXuXuXuXuXuXuXuXuXuXuXuXuXuXuXuXuXuXuXuXuXuXuXuX",
"uXuXuXuXuXuXuXuXuXuXuXuXuXuXuXuXuXuXuXuXuXuXuXuXuXuXuXuXuXuXuXuXuXuXuXuXuXuXuXuXuXuXuXuXuXuXuXuXuXuXuXuXuXuXuXuXuXuXuXuXuXuXuXuX",
"uXuXuXuXuXuXuXuXuXuXuXuXuXuXuXuXuXuXuXuXuXuXuXuXuXuXuXuXuXuXuXuXuXuXuXuXuXuXuXuXuXuXuXuXuXuXuXuXuXuXuXuXuXuXuXuXuXuXuXuXuXuXuXuX",
"uXuXuXuXuXuXuXuXuXuXuXuXuXuXuXuXuXuXuXuXuXuXuXuXuXuXuXuXuXuXuXuXuXuXuXuXuXuXuXuXuXuXuXuXuXuXuXuXuXuXuXuXuXuXuXuXuXuXuXuXuXuXuXuX",
"uXuXuXuXuXuXuXuXuXuXuXuXuXuXuXuXuXuXuXuXuXuXuXuXuXuXuXuXuXuXuXuXuXuXuXuXuXuXuXuXuXuXuXuXuXuXuXuXuXuXuXuXuXuXuXuXuXuXuXuXuXuXuXuX",
"uXuXuXuXuXuXuXuXuXuXuXuXuXuXuXuXuXuXuXuXuXuXuXuXuXuXuXuXuXuXuXuXuXuXuXuXuXuXuXuXuXuXuXuXuXuXuXuXuXuXuXuXuXuXuXuXuXuXuXuXuXuXuXuX",
"uXuXuXuXuXuXuXuXuXuXuXuXuXuXuXuXuXuXuXuXuXuXuXuXuXuXuXuXuXuXuXuXuXuXuXuXuXuXuXuXuXuXuXuXuXuXuXuXuXuXuXuXuXuXuXuXuXuXuXuXuXuXuXuX",
"uXuXuXuXuXuXuXuXuXuXuXuXuXuXuXuXuXuXuXuXuXuXuXuXuXuXuXuXuXuXuXuXuXuXuXuXuXuXuXuXuXuXuXuXuXuXuXuXuXuXuXuXuXuXuXuXuXuXuXuXuXuXuXuX",
"uXuXuXuXuXuXuXuXuXuXuXuXuXuXuXuXuXuXuXuXuXuXuXuXuXuXuXuXuXuXuXuXuXuXuXuXuXuXuXuXuXuXuXuXuXuXuXuXuXuXuXuXuXuXuXuXuXuXuXuXuXuXuXuX",
"uXuXuXuXuXuXuXuXuXuXuXuXuXuXuXuXuXuXuXuXuXuXuXuXuXuXuXuXuXuXuXuXuXuXuXuXuXuXuXuXuXuXuXuXuXuXuXuXuXuXuXuXuXuXuXuXuXuXuXuXuXuXuXuX",
"uXuXuXuXuXuXuXuXuXuXuXuXuXuXuXuXuXuXuXuXuXuXuXuXuXuXuXuXuXuXuXuXuXuXuXuXuXuXuXuXuXuXuXuXuXuXuXuXuXuXuXuXuXuXuXuXuXuXuXuXuXuXuXuX",
"uXuXuXuXuXuXuXuXuXuXuXuXuXuXuXuXuXuXuXuXuXuXuXuXuXuXuXuXuXuXuXuXuXuXuXuXuXuXuXuXuXuXuXuXuXuXuXuXuXuXuXuXuXuXuXuXuXuXuXuXuXuXuXuX",
"uXuXuXuXuXuXuXuXuXuXuXuXuXuXuXuXuXuXuXuXuXuXuXuXuXuXuXuXuXuXuXuXuXuXuXuXuXuXuXuXuXuXuXuXuXuXuXuXuXuXuXuXuXuXuXuXuXuXuXuXuXuXuXuX",
"uXuXuXuXuXuXuXuXuXuXuXuXuXuXuXuXuXuXuXuXuXuXuXuXuXuXuXuXuXuXuXuXuXuXuXuXuXuXuXuXuXuXuXuXuXuXuXuXuXuXuXuXuXuXuXuXuXuXuXuXuXuXuXuX",
"uXuXuXuXuXuXuXuXuXuXuXuXuXuXuXuXuXuXuXuXuXuXuXuXuXuXuXuXuXuXuXuXuXuXuXuXuXuXuXuXuXuXuXuXuXuXuXuXuXuXuXuXuXuXuXuXuXuXuXuXuXuXuXuX",
"uXuXuXuXuXuXuXuXuXuXuXuXuXuXuXuXuXuXuXuXuXuXuXuXuXuXuXuXuXuXuXuXuXuXuXuXuXuXuXuXuXuXuXuXuXuXuXuXuXuXuXuXuXuXuXuXuXuXuXuXuXuXuXuX",
"uXuXuXuXuXuXuXuXuXuXuXuXuXuXuXuXuXuXuXuXuXuXuXuXuXuXuXuXuXuXuXuXuXuXuXuXuXuXuXuXuXuXuXuXuXuXuXuXuXuXuXuXuXuXuXuXuXuXuXuXuXuXuXuX",
"uXuXuXuXuXuXuXuXuXuXuXuXuXuXuXuXuXuXuXuXuXuXuXuXuXuXuXuXuXuXuXuXuXuXuXuXuXuXuXuXuXuXuXuXuXuXuXuXuXuXuXuXuXuXuXuXuXuXuXuXuXuXuXuX",
"uXuXuXuXuXuXuXuXuXuXuXuXuXuXuXuXuXuXuXuXuXuXuXuXuXuXuXuXuXuXuXuXuXuXuXuXuXuXuXuXuXuXuXuXuXuXuXuXuXuXuXuXuXuXuXuXuXuXuXuXuXuXuXuX",
"uXuXuXuXuXuXuXuXuXuXuXuXuXuXuXuXuXuXuXuXuXuXuXuXuXuXuXuXuXuXuXuXuXuXuXuXuXuXuXuXuXuXuXuXuXuXuXuXuXuXuXuXuXuXuXuXuXuXuXuXuXuXuXuX",
"uXuXuXuXuXuXuXuXuXuXuXuXuXuXuXuXuXuXuXuXuXuXuXuXuXuXuXuXuXuXuXuXuXuXuXuXuXuXuX^ { ' } uXuXuXuXuXx 6 uXuXuXuXuXuXuXuXuXuXuXuXuXuX",
"uXuXuXuXuXuXuXuXuXuXuXuXuXuXuXuXuXuXuXuXuXuXuXuXuXuXuXuXuXuXuXuXuXuXuXuXuXuX| &.>.%.<.) 2 h G H G S uXuXuXuXuXuXuXuXuXuXuXuXuXuX",
"uXuXuXuXuXuXuXuXuXuXuXuXuXuXuXuXuXuXuXuXuXuXuXuXuXuXuXuXuXuXuXuXuXuXuXuXuX3 x / ' ' D D 6 3 5 uXuXuXuXuXuXuXuXuXuXuXuXuXuXuXuXuX",
"uXuXuXuXuXuXuXuXuXuXuXuXuXuXuXuXuXuXuX5 h x C C C C 5 uXuXuXuXuXh 3 x A C 6 * / q.<.<.} uXuXuXuXuXuXuXuXuXuXuXuXuXuXuXuXuXuXuXuX",
"uXuXuXuXuXuXuXuXuXuXuXuXuXuXuXuXC S D S A uXuXuXuXA G G 5 3 h h h 2 uXuXuXuXuXuXuX:.p.' uXuXuXuXuXuXuXuXuXuXuXuXuXuXuXuXuXuXuXuX",
"uXuXuXuXuXuXuXuXuXuXuXuXuXuX2 H G uXuXuXuXuXuXuXuXA G A 5 : uXuXuXuXuXuXuXuXuXuXuXuXq.) uXuXuXuXuXuXuXuXuXuXuXuXuXuXuXuXuXuXuXuX",
"uXuXuXuXuXuXuXuXuXuXuXuXuXuX: A A A S A C C A S A A : uXuXuXuXuXuXuXuXuXuXuXuXuXuXuX<.} uXuXuXuXuXuXuXuXuXuXuXuXuXuXuXuXuXuXuXuX",
"uXuXuXuXuXuXuXuXuXuXuXuXuXuXuX@ = 5 5 5 5 6 6 uXuXuXuXuXuXuXuXuXuXuXuXuXuXuXuXuXuXuX| >.uXuXuXuXuXuXuXuXuXuXuXuXuXuXuXuXuXuXuXuX",
"uXuXuXuXuXuXuXuXuXuXuXuXuXuXuXuXuXuXuXuXuXuXuXuXuXuXuXuXuXuXuXuXuXuXuXuXuXuXuXuXuXuX] ,.uXuXuXuXuXuXuXuXuXuXuXuXuXuXuXuXuXuXuXuX",
"uXuXuXuXuXuXuXuXuXuXuXuXuXuXuXuXuXuXuXuXuXuXuXuXuXuXuXuXuXuXuXuXuXuXuXuXuXuXuXuXuXuX/ 7.uXuXuXuXuXuXuXuXuXuXuXuXuXuXuXuXuXuXuXuX",
"uXuXuXuXuXuXuXuXuXuXuXuXuXuXuXuXuXuXuXuXuXuXuXuXuXuXuXuXuXuXuXuXuXuXuXuXuXuXuXuXuXuXuX+.t uXuXuXuXuXuXuXuXuXuXuXuXuXuXuXuXuXuXuX",
"uXuXuXuXuXuXuXuXuXuXuXuXuXuXuXuXuXuXuXuXuXuXuXuXuXuXuXuXuXuXuXuXuXuXuXuXuXuXuXuXuXuX2X0XyXH.uXuXuXuXuXuXuXuXuXuXuXuXuXuXuXuXuXuX",
"uXuXuXuXuXuXuXuXuXuXuXuXuXuXuXuXuXuXuXuXuXuXuXuXuXuXuXuXuXuXuXuXuXuXuXuXuXuXuXuXuXe U.U.$XX.uXuXuXuXuXuXuXuXuXuXuXuXuXuXuXuXuXuX",
"uXuXuXuXuXuXuXuXuXuXuXuXuXuXuXuXuXuXuXuXuXuXuXuXuXuXuXuXuXuX( { <.<.} | 2.t.t.q.,.1.r.r.8.,.r.<.; uXuXuXuXuXuXuXuXuXuXuXuXuXuXuX",
"uXuXuXuXuXuXuXuXuXuXuXuXuXuXuXuXuXuXuXuXQ &.| / &.q.i.t.r.r.a.s.d.s.a.s.a.a.s.8.p.p.r.a.r.W 5.2.# uXuXuXuXuXuXuXuXuXuXuXuXuXuXuX",
"uXuXuXuXuXuXuXuXuXuXuXuXuXuXuXuXuXuX/ <.%.t.4.R 4.a.a.a.i.d.1.3.p.>.a.a.p. .w.) @.] } a.u.~ 4.} uXuXuXuXuXuXuXuXuXuXuXuXuXuXuXuX",
"uXuXuXuXuXuXuXuXuXuXuXuXuXuXuXuX| y.a.s.t.>.;.R R 5.s.a.( &...X.$...t.p.y.P.Q.C.0 w B.@.t.a.a.:.uXuXuXuXuXuXuXuXuXuXuXuXuXuXuXuX",
"uXuXuXuXuXuXuXuXuXuXuXuXuXuX/ 8.a.a.1.1.a.8.9.5.3.p.d.9.U.V.N.9 9 V.$X0.#XyXF.N.9 q S.1X+Xi.s.i.^ uXuXuXuXuXuXuXuXuXuXuXuXuXuXuX",
"uXuXuXuXuXuXuXuXuXuXuXuXuX[ p.a.s.i.E Y 3.r.>.s.a.p.w.#XeXF.S.q f.S.1X4X2XrX1XD.D.D.F.qX4X9.a.a.^ uXuXuXuXuXuXuXuXuXuXuXuXuXuXuX",
"uXuXuXuXuXuXuXuXuXuXuXuXuX^ w.s.a.a. .Y ;.a.9.q.q.;.6.wXrX9X<XF.F.<XyXrX2XtXrXqX9X9XqX7XU.} a.a.F uXuXuXuXuXuXuXuXuXuXuXuXuXuXuX",
"uXuXuXuXuXuXuXuXuXuXuXuXuXuX^ i.s.s.r.W ;.a.a.<.i.u.| T.3X6XtXeXeXrXrXtXY.qXrXrXrX6X@Xy.p./ <.s.) uXuXuXuXuXuXuXuXuXuXuXuXuXuXuX",
"uXuXuXuXuXuXuXuXuXuXuXuXuXuXuX8.u.;.r.a.p.a.a.,.t.<.8.9.9.7.#XrXrXrXtX%X7.@X&X4X*Xe.a.s.2.^ q.s.:.uXuXuXuXuXuXuXuXuXuXuXuXuXuXuX",
"uXuXuXuXuXuXuXuXuXuXuXuXuXuXuX( r.4.q.a.a.a.a.>.7.2.i.r.t.5.Y.wX6X3X@Xy.d.i.>.6.u.u.2.}  .5.s.s.r.4 uXuXuXuXuXuXuXuXuXuXuXuXuXuX",
"uXuXuXuXuXuXuXuXuXuXuXuXuXuXuXuX .a.a.a.s.s.s.8.>.t.d.r.} ,.y.e.e.t.a.d.a.a.p.q.1.| ( ^ { a.a.s.2.uXuXuXuXuXuXuXuXuXuXuXuXuXuXuX",
"uXuXuXuXuXuXuXuXuXuXuXuXuXuXX.R.&X&X@X9.a.a.a.a.>.r.s.s.3.; 7 %.q.i.a.i.i.u.w.<.6.] ) ' ,.s.s.s.:.uXuXuXuXuXuXuXuXuXuXuXuXuXuXuX",
"uXuXuXuXuXuXuXuX&.:.:.>.,.%.6.@.wXrXrX$Xr.a.s.s.q.8.s.s.s.c   X @ # t #X#XP.& U 4X8XI.a.s.s.p.s.8.uXuXuXuXuXuXuXuXuXuXuXuXuXuXuX",
"uX[ } &.>.<.q.,.] uXuXuXuXuXY.$X0XqX3X@Xa.a.q.u.9.8.s.u.p.r.#       e yXwX2XO y R.W.0.p.s.r.E ~ t.7 uXuXuXuXuXuXuXuXuXuXuXuXuXuX",
"uX/ ' &.t.p.t.<.' uXuXuXuXuXuXE.E.u [ a.a.i.E ~ 2.8.i.E 4.s.>.@   O o = p r .     > i.d.a.r.W ~ ,.; uXuXuXuXuXuXuXuXuXuXuXuXuXuX",
"uX6.:.uX:.} uX[ [ uXuXuXuXuXuXuXuXuX7 y.s.i.E R 2.:.p.3.5.a.d.{ , I b.P !.!.P X   Q s.a.a.a.p.p.&.uXuXuXuXuXuXuXuXuXuXuXuXuXuXuX",
"uX} uXuX:.uXuXuXuXuXuXuXuXuXuXuXuXuXuX,.a.t.1.E t.8.u.d.4.~ 3.d.w.-.!.!.~.!.P O > q.s.a.a.1.r.a.9.uXuXuXuXuXuXuXuXuXuXuXuXuXuXuX",
"uXuXuXuXuXuXuXuXuXuXuXuXuXuXuXuXuXuXuX] 5.;.p.p.a.r.7.i.E Y W p.a.p.q.7.-.-.) { i.s.a.a.p.3.r.a.<.uXuXuXuXuXuXuXuXuXuXuXuXuXuXuX",
"uXuXuXuXuXuXuXuXuXuXuXuXuXuXuXuXuXuXuXuX<.q.t.a.s.u.} a.3.;.8.p.p.p.u.w.,.*.*.*.7.7.+.#.U.+XU.I.t uXuXuXuXuXuXuXuXuXuXuXuXuXuXuX",
"uXuXuXuXuXuXuXuXuXuXuXuXuXuXuXuXuXuXuXuXt %XXX@.@.@.X.@.+X+XU.....I.%X2XJ.V d L.R.R.R.0XrXrXtXqXi uXuXuXuXuXuXuXuXuXuXuXuXuXuXuX",
"uXuXuXuXuXuXuXuXuXuXuXuXuXuXuXuXuXuXuXuXr U.$X5X4XwX5X8XyXyXeX6X5XT.T.T.%XV d L.U.L.OXP.o.o.O.O.5 uXuXuXuXuXuXuXuXuXuXuXuXuXuXuX",
"uXuXuXuXuXuXuXuXuXuXuXuXuXuXuXuXuXuXuXuX$ l g * , _ ` G O.D Z x S _ m , * s f a * g B b , - b ! l uXuXuXuXuXuXuXuXuXuXuXuXuXuXuX",
"uXuXuXuXuXuXuXuXuXuXuXuXuXuXuXuXuXuXuXuXuXl m v l B m b ! j 1 g v B B v b k d k m M B M M B B v < uXuXuXuXuXuXuXuXuXuXuXuXuXuXuX",
"uXuXuXuXuXuXuXuXuXuXuXuXuXuXuXuXuXuXuXuXuX* < l l v v z m N N n v v z z g g < < < , , , l v B v g uXuXuXuXuXuXuXuXuXuXuXuXuXuXuX",
"uXuXuXuXuXuXuXuXuXuXuXuXuXuX      uXuXuXuXz B B m 1 uXuXuXuXuXuXuXuXuXuXuXuXuXuXuXuXuXuXl M T T g uXuXuXuXuXuXuXuXuXuXuXuXuXuXuX",
"uXuXuXuXuXuXuXuXuXuXuXuXuX.   % y uXuXuXuXg n T N uXuXuXuXuXuXuXuXuXuXuXuXuXuXuXuXuXuXuXuXg c ,.] uXuXuXuXuX% % e uXuXuXuXuXuXuX",
"uXuXuXuXuXuXuXuXuXuXuXuX.     y H.u uXuX] ,.4 uXuXuXuXuXuXuXuXuXuXuXuXuXuXuXuXuXuXuXuXuXuXuXuXuX| X.uXuXuXuXo e wXW.uXuXuXuXuXuX",
"uXuXuXuXuXuXuXuXuXuXuXuX  & o uXuX..6.<.8./ uXuXuXuXuXuXuXuXuXuXuXuXuXuXuXuXuXuXuXuXuXuXuXuXuXuXuXy G.E.uXuX. G.4XuXuXuXuXuXuXuX",
"uXuXuXuXuXuXuXuXuXuXuXuX. % o uXuXuX%.{ uXuXuXuXuXuXuXuXuXuXuXuXuXuXuXuXuXuXuXuXuXuXuXuXuXuXuXuXuXuXuXR.u   % E.H.uXuXuXuXuXuXuX",
"uXuXuXuXuXuXuXuXuXuXuXuXuXuXuXuXuXuXuXuXuXuXuXuXuXuXuXuXuXuXuXuXuXuXuXuXuXuXuXuXuXuXuXuXuXuXuXuXuXuXuXuX.   y 2XuXuXuXuXuXuXuXuX",
"uXuXuXuXuXuXuXuXuXuXuXuXuXuXuXuXuXuXuXuXuXuXuXuXuXuXuXuXuXuXuXuXuXuXuXuXuXuXuXuXuXuXuXuXuXuXuXuXuXuXuXuXuXuXG.uXuXuXuXuXuXuXuXuX"
};