/* XPM */
static char *_92ffcf570ae4651c23309a0b72e81afRtUaeB2hFlAs2lqK[] = {
/* columns rows colors chars-per-pixel */
"64 64 191 2 ",
"   c None",
".  c #000101",
"X  c #020C06",
"o  c #080B0A",
"O  c #080906",
"+  c #110C00",
"@  c #011209",
"#  c #021C0E",
"$  c #0A1811",
"%  c #121A17",
"&  c #271F00",
"*  c #3D0A12",
"=  c #3E161C",
"-  c #02200F",
";  c #032412",
":  c #032C16",
">  c #082117",
",  c #043319",
"<  c #043A1D",
"1  c #033017",
"2  c #2B2000",
"3  c #1C2924",
"4  c #0D3324",
"5  c #0E3928",
"6  c #123B2C",
"7  c #19352A",
"8  c #372626",
"9  c #23342D",
"0  c #293C34",
"q  c #273831",
"w  c #3D3C38",
"e  c #4C020E",
"r  c #44030D",
"t  c #50010E",
"y  c #4D0511",
"u  c #4E0C13",
"i  c #520812",
"p  c #58191B",
"a  c #5D211F",
"s  c #4F272D",
"d  c #542A31",
"f  c #58252E",
"g  c #71372D",
"h  c #0B4028",
"j  c #10402E",
"k  c #0F4A30",
"l  c #114632",
"z  c #124B35",
"x  c #1A4233",
"c  c #15553C",
"v  c #1A573F",
"b  c #2E423A",
"n  c #284C3C",
"m  c #31473F",
"M  c #37473F",
"N  c #51480A",
"B  c #745E09",
"V  c #6B6628",
"C  c #5D3E43",
"Z  c #175C41",
"A  c #1D5D44",
"S  c #344C42",
"D  c #3D4842",
"F  c #235541",
"G  c #235D44",
"H  c #365146",
"J  c #3A544A",
"K  c #3D594E",
"L  c #35594B",
"P  c #3D5C50",
"I  c #1A6246",
"U  c #1B6649",
"Y  c #1C6B4C",
"T  c #176044",
"R  c #1D7251",
"E  c #23694E",
"W  c #3A6540",
"Q  c #2A6B53",
"!  c #326A55",
"~  c #396955",
"^  c #3C6052",
"/  c #247355",
"(  c #297457",
")  c #2C765A",
"_  c #32755B",
"`  c #34795E",
"'  c #3C7B62",
"]  c #41534A",
"[  c #4C574B",
"{  c #405D52",
"}  c #675244",
"|  c #4D704B",
" . c #436256",
".. c #466559",
"X. c #47685B",
"o. c #496A5E",
"O. c #566F54",
"+. c #45705B",
"@. c #4F7356",
"#. c #53715A",
"$. c #587457",
"%. c #6F7D4E",
"&. c #6D665F",
"*. c #677B54",
"=. c #4C6E61",
"-. c #546C63",
";. c #5C6A65",
":. c #4E7365",
">. c #427C65",
",. c #497966",
"<. c #4A7E6A",
"1. c #427360",
"2. c #507466",
"3. c #527768",
"4. c #557C6D",
"5. c #5A766B",
"6. c #567F71",
"7. c #587F70",
"8. c #66716D",
"9. c #6D7B76",
"0. c #687872",
"q. c #767675",
"w. c #D12F27",
"e. c #C8392B",
"r. c #8D473A",
"t. c #CA7939",
"y. c #BB664F",
"u. c #B76D59",
"i. c #806E71",
"p. c #847779",
"a. c #907C77",
"s. c #CA7C43",
"d. c #C76D55",
"f. c #C9615D",
"g. c #CC725A",
"h. c #DC795E",
"j. c #D4755C",
"k. c #CB7F7A",
"l. c #E57C60",
"z. c #75854C",
"x. c #718546",
"c. c #71844D",
"v. c #4E806D",
"b. c #52816F",
"n. c #568271",
"m. c #5A8373",
"M. c #B08D0E",
"N. c #9E8C25",
"B. c #878D3A",
"V. c #BC9727",
"C. c #D6B92B",
"Z. c #88974F",
"A. c #979D52",
"S. c #8C9553",
"D. c #B5B95A",
"F. c #A4AA58",
"G. c #B28173",
"H. c #C7944E",
"J. c #D29B4F",
"K. c #C38248",
"L. c #D9B95B",
"P. c #D0AD58",
"I. c #DAC35E",
"U. c #EFE355",
"Y. c #CBCC61",
"T. c #D0CF62",
"R. c #D4D464",
"E. c #DBDA66",
"W. c #ECEA6E",
"Q. c #EBE769",
"!. c #F6EB61",
"~. c #F2F272",
"^. c #7E8985",
"/. c #898D8A",
"(. c #989192",
"). c #A39B98",
"_. c #9CA19F",
"`. c #A7A8A8",
"'. c #B0A5A7",
"]. c #ADB0AF",
"[. c #AEB1B0",
"{. c #B4B4B4",
"}. c #C98887",
"|. c #CBABA6",
" X c #C4C5C5",
".X c gray80",
"XX c #DEDFDF",
"oX c gray84",
"OX c #E0DFE0",
"+X c #FDFDFD",
"@X c #E5E4E5",
/* pixels */
"                                                                                    ; ; # ; #                                   ",
"                                                                                : : ;       # @                                 ",
"                                                                              @ #                                               ",
"                                                                              , X                                               ",
"                                                                            : :                                                 ",
"                                                                            < -                                                 ",
"                                                                          # ,                                                   ",
"                                                                          ; ,                                                   ",
"                                                                          @ @                                                   ",
"                                                                          : ;                                                   ",
"                                                                          < ;                                                   ",
"                                                                          < #                                                   ",
"                                                                          <                                                     ",
"                                                                        @ : @                                                   ",
"                                                                        X ; X                                                   ",
"                                                                          <                                                     ",
"                                                                          <                                                     ",
"                                                                          , ;                                                   ",
"                                                                          , ;                                                   ",
"                                                                          ; #                                                   ",
"        @ @ : , 1 : :                                                     # #                                                   ",
"    ; ; @ X     ; : : : # @ : ;                                           : ,                                                   ",
"  ;                     . X ; : : : :                                       ,                                                   ",
"; #                                 ; X # :                                 , -                                                 ",
"#                                         : : : ;                           : :       . .                                       ",
"@                                             ; , , X X                   l F ~ :.J O . $                                       ",
"                                                  @ X , ,             z E ' n.7.K $ . o  .o.S                                   ",
"  .                                                     , < :       v ) ,.=.S 3 . . + V z.5.2.{                                 ",
"                                                          ; < < : z F 9 % o . . . 2 N.Q.W.T.S.#...                              ",
"                                                              , < 5 n q o . + & B V.t.s.P.W.W.D.#. .                            ",
"                                                                k G 1.P 7 N M.C.U.H.}.f.w.K.W.~.A.2.{                   3 0 S b ",
"                                                                Y v.m.n.E B.!.~.~.P.|.k.w.e.I.~.E.O.6.S                 0 K S 9 ",
"                                                                Y b.m.m.) x.W.~.~.Q.K.e.w.e.T.~.W.%.6.3.9               9 o.P   ",
"                                                                U <.m.m.,.W R.~.~.~.W.L.J.L.W.~.W.%.6.m.{                 X.    ",
"                                                                v ' m.m.m.! x.W.~.~.~.~.~.~.~.~.T.O.m.m.4.b             J K     ",
"                                                                z ( b.m.m.n.~ x.E.~.~.~.~.~.~.E.c.4.m.m.m. .             .      ",
"                                                                  U ' m.m.m.n.1.| Z.D.R.R.Y.F.*.2.7.7.2.=.4.0         P J       ",
"                                                                  l ( b.m.m.m.m.6.,.+.@.$.#.-.=.{ 6.3.;.-.7.P       m ..        ",
"                                                      9             v ' m.m.m.m.6.4.m.m.m.n.=.X.3.=.9.OX^.4.:.      o.S         ",
"                                                    9 b 3           5 Y v.m.m.m.P ..4.4.4.3.2.o.8.[.`.].;.n.n.S   K  .          ",
"                                                    m m q             z ( n.m.:.J 0.q.9./.8._. X`.OXq.8 4.m.m. .q o.            ",
"                                                      m ..K             Z ' m.7.4.0. X{.+X X X@Xp.d t r o.m.m.4.H b             ",
"                                                          P ..J         5 Y <.m.m.3.q.q.'.(.C f i t i e ] m.m.m.H               ",
"                                                              J { H       k / n.m.m.] r y e t t y u t t 8 4.m.m.o.              ",
"                                                                  H K S     c ` m.m.m.w e e p p g y.r.u r ] 5.m.4.0             ",
"                                                                      S H S 7 I ,.m.m.4.8 a d.h.g.h.l.r.s = M m.m.S             ",
"                                                                          b S ^ _ b.m.m.,.} d.j.g.u.G.a.oXq.D m.m.{             ",
"                                                                              0 Q ' m.m.m.4.[ &.)./.XX X_.9.=.m.m.o.            ",
"                                                                                v ( n.m.m.m.m.4.5.;.0.0.2.:.{ 4.m.:.            ",
"                                                                                k R >.m.m.m.m.m.m.m.n.n.3.{ 2.m.m.:.            ",
"                                                                                4 U ( m.m.m.m.m.m.m.m.m.4.m.m.m.m.o.            ",
"                                                                                  T R v.m.m.m.m.m.m.m.m.m.m.m.m.m.X.            ",
"                                                                                  z R ' m.m.m.m.m.m.m.m.m.m.m.m.m.{             ",
"                                                                                  5 Y ( b.m.m.m.m.m.m.m.m.m.m.m.m.S             ",
"                                                                                    T R <.m.m.m.m.m.m.m.m.m.m.m.2.              ",
"                                                                                    z R ` n.m.m.m.m.m.m.m.m.m.n.S               ",
"                                                                                    4 U R >.m.m.m.m.m.m.m.m.m.^ 7               ",
"                                                                                      l Y / >.m.m.m.m.m.m.<.^ G <.K             ",
"                                                                                      > c R R ) >.<.,.>.! x j E 4.4.m           ",
"                                                                                        I ( ,.F c c c j         v >.{           ",
"                                                                                        I ' ..                    I L           ",
"                                                                                        U ,.b                     6 x           ",
"                                                                                      4 _ K                                     ",
"                                                                                      7 H                                       "
};